<svg aria-hidden="true" style="position:absolute;width:0;height:0;overflow:hidden" xmlns="http://www.w3.org/2000/svg"><defs><symbol id="antenna" viewBox="0 0 32 32"><path fill="#212121" style="fill:var(--color1, #212121)" d="m30.773 22.098-8.443-8.505.937-4.615c.242.094.499.144.758.146h.006a2.159 2.159 0 1 0-2.008-1.435l-4.96.605L8.972.161a.534.534 0 0 0-.377-.16.532.532 0 0 0-.373.155L6.709 1.66a.534.534 0 0 0 0 .754l.814.826a14.943 14.943 0 0 0 2.519 17.663.513.513 0 0 0 .146.098c-.034.18-.051.364-.052.547v6.187h-6.4a2.67 2.67 0 0 0-2.667 2.667v1.067c0 .295.239.533.533.533h24.533a.533.533 0 0 0 .533-.533v-1.067a2.67 2.67 0 0 0-2.667-2.667h-6.4v-2.742a15.09 15.09 0 0 0 3.049.32 14.854 14.854 0 0 0 7.04-1.783l.818.823a.534.534 0 0 0 .377.16.532.532 0 0 0 .373-.155l1.513-1.504a.534.534 0 0 0 0-.754zM23.28 6.233a1.066 1.066 0 1 1 .752 1.822h-.003a1.067 1.067 0 0 1-.747-1.823h-.002zm-1.256 3.505-.598 2.946-1.175-1.182 1.774-1.763zm-.605-.902-1.92 1.909-1.485-1.493 3.405-.415zM24.004 28.8a1.6 1.6 0 0 1 1.6 1.6v.533H2.137V30.4a1.6 1.6 0 0 1 1.6-1.6h20.267zm-7.467-2.133v1.067h-5.333v-1.067h5.333zM11.204 25.6v-4.053c0-1.294 1.196-2.347 2.667-2.347s2.667 1.053 2.667 2.347V25.6h-5.333zm6.4-1.696v-2.357c0-1.882-1.675-3.413-3.733-3.413a3.8 3.8 0 0 0-3.281 1.786A13.87 13.87 0 0 1 8.311 4.033l18.602 18.708a13.818 13.818 0 0 1-9.309 1.163zm11.289-.684L7.836 2.039l.755-.752 7.935 7.98c.004 0 .006.007.01.01l13.115 13.191-.757.752z"/><path fill="#2196f3" style="fill:var(--color2, #2196f3)" d="M13.876 20.267h-.005a1.6 1.6 0 1 0-.004 3.2h.005a1.6 1.6 0 1 0 .004-3.2zm.373 1.978a.534.534 0 0 1-.752-.756.534.534 0 0 1 .373-.155.532.532 0 0 1 .373.911h.005z"/></symbol><symbol id="astronaut" viewBox="0 0 34 32"><path fill="#2196f3" style="fill:var(--color2, #2196f3)" d="M31.975 4.279a.506.506 0 0 0-.407-.343l-1.807-.263-.809-1.638c-.169-.345-.735-.345-.905 0l-.809 1.638-1.807.263a.504.504 0 0 0-.28.86l1.308 1.275-.309 1.8a.505.505 0 0 0 .732.531l1.616-.85 1.616.85a.504.504 0 0 0 .732-.531l-.309-1.8 1.308-1.275a.506.506 0 0 0 .127-.517zm-2.329 1.256a.504.504 0 0 0-.145.447l.181 1.054-.946-.497a.501.501 0 0 0-.47 0l-.947.497.181-1.054a.507.507 0 0 0-.145-.447l-.766-.747 1.058-.154a.505.505 0 0 0 .38-.276l.473-.959.473.959a.505.505 0 0 0 .38.276l1.058.154-.765.747zM26.451 19.413h-1.009v1.009h1.009v-1.009zM26.451 21.431h-1.009v1.009h1.009v-1.009zM27.46 20.422h-1.009v1.009h1.009v-1.009zM25.442 20.422h-1.009v1.009h1.009v-1.009zM22.919 24.963H21.91v1.009h1.009v-1.009zM22.919 26.981H21.91v1.009h1.009v-1.009zM23.928 25.972h-1.009v1.009h1.009v-1.009zM21.91 25.972h-1.009v1.009h1.009v-1.009zM16.865 22.945h-1.009v1.009h1.009v-1.009zM16.865 24.963h-1.009v1.009h1.009v-1.009zM17.874 23.953h-1.009v1.009h1.009v-1.009z"/><path fill="#2196f3" style="fill:var(--color2, #2196f3)" d="M15.856 23.953h-1.009v1.009h1.009v-1.009zM7.279 5.791H6.27V6.8h1.009V5.791zM7.279 7.809H6.27v1.009h1.009V7.809zM8.288 6.8H7.279v1.009h1.009V6.8zM6.27 6.8H5.261v1.009H6.27V6.8z"/><path fill="#212121" style="fill:var(--color1, #212121)" d="M25.109 13.394a1.675 1.675 0 0 0-1.124-.666 1.677 1.677 0 0 0-1.267.333l-1.185.908-1.795 1.341-1.285-.512c2.29-1.028 3.891-3.319 3.891-5.978 0-3.616-2.954-6.559-6.585-6.559S9.174 5.203 9.174 8.82c0 1.311.392 2.53 1.059 3.555l-2.614-.023h-.005c-.008 0-.015.004-.022.005a.498.498 0 0 0-.147.029c-.012.005-.025.007-.036.013l-.018.006-3.058 1.51h-.001l-1.791.861a.446.446 0 0 0-.06.033 1.684 1.684 0 0 0 .433 3.012 1.68 1.68 0 0 0 1.304-.122l1.313-.698 2.142-1.106 1.284-.008-5.148 5.123-.002.001-1.266 1.261c-.299.298-.464.693-.464 1.114s.164.817.464 1.115c.307.306.711.459 1.115.459s.808-.153 1.116-.459l1.243-1.238 1.647-1.23.852.849-1.666 1.659-.002.001-1.266 1.261c-.299.298-.464.693-.464 1.114s.165.817.464 1.115c.307.306.712.459 1.116.459s.809-.153 1.117-.459l3.293-3.279.001-.002.955-.946-.004-.004c.006-.006.015-.008.021-.015l4.887-5.352 3.283.467a.513.513 0 0 0 .248-.031c.017-.006.031-.014.047-.022.018-.009.037-.014.055-.026l3.04-2.018c.011-.008.017-.02.028-.028.012-.01.027-.014.038-.024l1.203-1.127a1.682 1.682 0 0 0 .2-2.234zM3.745 16.81a.675.675 0 0 1-.528.049.677.677 0 0 1-.201-1.192l1.243-.598.425 1.242-.938.499zm3.308-1.729-1.465.757-.415-1.214 1.917-.946-.037 1.404zm14.283-6.263c0 .869-.207 1.688-.567 2.421l-3.955-1.797a1.76 1.76 0 0 0-.746-1.313l1.385-4.598c2.249.715 3.883 2.814 3.883 5.286zm-11.151 0c0-3.06 2.501-5.55 5.576-5.55.239 0 .473.02.705.049l-1.355 4.497c-.018-.001-.035-.006-.054-.006-.977 0-1.771.792-1.771 1.766s.795 1.766 1.771 1.766c.657 0 1.224-.363 1.531-.894l3.654 1.66a5.576 5.576 0 0 1-4.481 2.261c-3.074 0-5.576-2.49-5.576-5.55zm5.634.757c0 .417-.342.757-.762.757s-.762-.339-.762-.757c0-.417.342-.757.762-.757s.762.34.762.757zM4.061 23.787a.576.576 0 0 1-.808.001.565.565 0 0 1 0-.799l.91-.907.805.802-.907.903zm3.04 3.532a.576.576 0 0 1-.809.001.563.563 0 0 1 0-.799l.911-.907.806.802-.908.904zm3.294-3.282-.002.001-1.669 1.665-.806-.802 1.668-1.66.002-.001a.484.484 0 0 0 .085-.128c.007-.013.019-.024.025-.038.016-.039.018-.081.024-.122.003-.023.013-.045.013-.069 0-.034-.012-.067-.019-.1-.006-.03-.006-.061-.018-.09a.515.515 0 0 0-.086-.13c-.01-.011-.013-.025-.024-.036h-.001l-.001-.002-1.52-1.514c-.016-.016-.037-.023-.055-.036a.49.49 0 0 0-.082-.055.485.485 0 0 0-.088-.031.537.537 0 0 0-.097-.019.45.45 0 0 0-.09.005.53.53 0 0 0-.098.019c-.032.01-.06.026-.089.042-.019.011-.04.014-.058.027l-1.677 1.252-.852-.849 2.269-2.257 4.125 4.057-.877.869zm6.45-6.637c-.015-.002-.028.004-.043.003a.5.5 0 0 0-.283.071.485.485 0 0 0-.079.058c-.012.011-.027.016-.038.028l-4.444 4.868-4.094-4.027 2.68-2.666a.506.506 0 0 0-.359-.862l-2.099.013.026-1.521 2.936.025a6.574 6.574 0 0 0 4.712 1.987 6.61 6.61 0 0 0 1.21-.116c.038.03.075.061.123.08l2.279.908.313 1.555-2.84-.404zm3.823.168-.296-1.474 1.368-1.022.896 1.189-1.968 1.307zm3.551-2.678-.793.743-.881-1.169.787-.603a.692.692 0 0 1 .514-.135.675.675 0 0 1 .373 1.165z"/><path fill="#212121" style="fill:var(--color1, #212121)" d="m14.597 17.542-2.027-2.018a.505.505 0 0 0-.712 0l-2.027 2.018a.505.505 0 0 0 0 .716l2.027 2.018a.504.504 0 0 0 .712 0l2.027-2.018a.506.506 0 0 0 0-.716zm-2.383 1.664L10.902 17.9l1.312-1.306 1.312 1.306-1.312 1.306zM17.966 4.797l-.244.98c.067.017 1.644.427 1.644 2.033h1.009c0-1.908-1.576-2.805-2.409-3.012zM20.375 8.818h-1.009v1.009h1.009V8.818z"/></symbol><symbol id="client-1" viewBox="0 0 59 32"><path fill="#afb1b8" style="fill:var(--color3, #afb1b8)" d="m24.348 8 2.438 2.308-4.524-.003v11.196h11.826V17.22l2.435 2.305V8H24.349zm9.632 8.949-6.911-6.543h6.911v6.543zm-2.146 2.914h-7.702v-7.53h.544v7.02h7.157v.51zm-5.883 3.128h.238l-.414.781v.455h-.216v-.455l-.415-.781h.239l.285.586.285-.586zm.357 1.236.1-.288h.479l.101.288h.224l-.468-1.236h-.193l-.467 1.236h.223zm.34-.974.179.513h-.358l.179-.513zm1.133.484a.325.325 0 0 0 .063.411c.073.065.172.097.294.097s.228-.033.316-.099l.07.082h.239l-.182-.215a.618.618 0 0 0 .107-.374h-.179a.49.49 0 0 1-.052.227l-.239-.282.084-.061c.059-.043.102-.086.128-.129s.039-.091.039-.143c0-.078-.029-.143-.087-.196s-.131-.08-.221-.08c-.1 0-.179.028-.238.085s-.088.133-.088.229c0 .04.009.081.028.123s.053.094.101.155a.726.726 0 0 0-.184.171zm.558.273a.32.32 0 0 1-.195.07c-.062 0-.111-.018-.148-.053s-.055-.082-.055-.139c0-.066.034-.125.102-.177l.026-.019.27.318zm-.222-.548c-.058-.072-.087-.132-.087-.179 0-.041.012-.076.036-.103s.056-.041.096-.041c.037 0 .068.012.093.035s.037.05.037.082a.153.153 0 0 1-.053.12l-.026.021-.094.065zm2.013.672a.445.445 0 0 0 .146-.309h-.214c-.011.088-.038.151-.081.189s-.106.057-.19.057c-.092 0-.162-.035-.211-.105s-.071-.172-.071-.306v-.11c.001-.132.027-.232.076-.3s.122-.103.216-.103c.08 0 .141.02.183.059s.068.103.078.192h.214c-.014-.135-.062-.24-.145-.314s-.193-.111-.329-.111a.465.465 0 0 0-.445.278.73.73 0 0 0-.062.308v.115c.002.114.023.214.064.3s.099.153.173.2a.49.49 0 0 0 .261.07.503.503 0 0 0 .339-.11zm1.262-.173a.76.76 0 0 0 .063-.319v-.069c-.001-.121-.022-.226-.065-.317a.477.477 0 0 0-.448-.282.482.482 0 0 0-.449.285.748.748 0 0 0-.064.319v.07c.001.118.022.223.065.313s.104.161.182.21a.497.497 0 0 0 .268.073c.101 0 .191-.024.268-.073s.138-.119.18-.211zm-.23-.699a.539.539 0 0 1 .078.315v.065c0 .139-.026.245-.077.318s-.124.109-.219.109c-.094 0-.168-.037-.221-.111s-.079-.179-.079-.315v-.071c.001-.133.028-.236.08-.308s.125-.11.218-.11c.095 0 .168.037.22.11z"/></symbol><symbol id="client-2" viewBox="0 0 57 32"><path fill="#afb1b8" style="fill:var(--color3, #afb1b8)" d="M27.556 7.019h-.044a4.49 4.49 0 0 0-.202-.007h-.146a7.093 7.093 0 0 0-.414.01 9.044 9.044 0 0 0-3.365.859l-.138.067v7.085l.324-.11c.284-.098.587-.186.9-.267a10.991 10.991 0 0 1 2.59-.344v.931a7.629 7.629 0 0 0-.341.01h-.027c-.673.037-1.34.139-1.993.306a10.12 10.12 0 0 0-2.374.925V7.397a9.523 9.523 0 0 1 2.491-1.013 9.54 9.54 0 0 1 2.348-.303h.137c.164.004.323.011.473.023.395.028.786.09 1.17.186v.916a7.242 7.242 0 0 0-1.133-.171l-.023-.002a2.683 2.683 0 0 0-.232-.013zm1.613.937c.203.015.414.023.627.023a10.02 10.02 0 0 0 2.468-.317 10.16 10.16 0 0 0 2.373-.926v8.925a9.53 9.53 0 0 1-2.492 1.013 9.587 9.587 0 0 1-2.348.302 7.177 7.177 0 0 1-1.781-.21V7.783c.138.032.279.061.423.085.236.04.486.069.729.087zm4.542.069-.324.109c-.298.1-.598.19-.9.269a10.95 10.95 0 0 1-2.69.345c-.211 0-.406-.006-.593-.018l-.258-.017v7.289l.222.02c.206.018.418.027.631.027a8.613 8.613 0 0 0 2.119-.274 8.856 8.856 0 0 0 1.655-.595l.139-.067V8.025zM22.956 19.588a.485.485 0 0 0-.361-.145.53.53 0 0 0-.208.039.463.463 0 0 0-.266.27.53.53 0 0 0-.037.201v1.214a.56.56 0 0 0 .048.249.423.423 0 0 0 .288.249c.059.017.12.025.181.025a.522.522 0 0 0 .464-.317.513.513 0 0 0 .039-.194v-.136h-.317v.108a.265.265 0 0 1-.019.108.186.186 0 0 1-.046.068.212.212 0 0 1-.132.046.162.162 0 0 1-.149-.065.283.283 0 0 1-.042-.163v-1.132a.377.377 0 0 1 .039-.181.16.16 0 0 1 .155-.073.166.166 0 0 1 .141.069.26.26 0 0 1 .053.163v.105h.314v-.124a.566.566 0 0 0-.145-.383zM24.841 19.574a.562.562 0 0 0-.55-.099.482.482 0 0 0-.291.269.557.557 0 0 0-.046.235v1.164a.57.57 0 0 0 .046.238.481.481 0 0 0 .123.163c.049.045.105.08.168.103a.558.558 0 0 0 .378 0 .497.497 0 0 0 .338-.504v-1.164a.557.557 0 0 0-.046-.235.52.52 0 0 0-.12-.17zm-.148 1.57a.208.208 0 0 1-.064.168.233.233 0 0 1-.298 0c-.022-.022-.04-.048-.051-.077s-.015-.06-.013-.091V19.98a.208.208 0 0 1 .064-.168.233.233 0 0 1 .298 0c.022.022.04.048.051.077s.015.06.013.091v1.164zM27.318 21.664V19.46h-.305l-.401 1.167h-.006l-.404-1.167H25.9v2.204h.315v-1.341h.006l.308.948h.157l.311-.948h.006v1.341h.315zM29.107 19.614a.44.44 0 0 0-.178-.12.682.682 0 0 0-.228-.034h-.468v2.204h.314v-.861h.162a.576.576 0 0 0 .283-.06.462.462 0 0 0 .172-.168.533.533 0 0 0 .072-.192 1.62 1.62 0 0 0 .017-.251 1.234 1.234 0 0 0-.031-.315.475.475 0 0 0-.116-.203zm-.162.672a.272.272 0 0 1-.029.115.173.173 0 0 1-.081.077.328.328 0 0 1-.148.028h-.143v-.749h.162a.304.304 0 0 1 .142.028.187.187 0 0 1 .074.081.33.33 0 0 1 .028.123v.146c0 .051.003.104 0 .151h-.003zM30.594 19.459h-.257l-.486 2.204h.314l.092-.474h.428l.092.474h.314l-.498-2.204zm-.289 1.431.155-.799h.006l.154.799h-.314zM32.624 20.787h-.006l-.474-1.328h-.302v2.204h.314v-1.326h.006l.48 1.326h.295v-2.204h-.314v1.328zM34.543 19.459l-.253.876h-.006l-.252-.876h-.333l.431 1.273v.932h.314v-.932l.431-1.273h-.332zM22.08 22.286h.151v.425h.103v-.425h.151v-.087h-.405v.087zM23.353 22.199l-.198.512h.109l.042-.116h.204l.044.116h.112l-.203-.512h-.109zm-.017.309.07-.19.07.19h-.139zM24.611 22.522h.118v.066a.192.192 0 0 1-.121.043c-.021.001-.041-.003-.06-.011s-.035-.021-.048-.038a.211.211 0 0 1-.038-.133c0-.114.049-.171.147-.171.026-.003.052.004.073.019s.036.037.043.062l.101-.02c-.022-.1-.094-.151-.217-.151a.257.257 0 0 0-.179.066c-.026.025-.046.056-.058.09s-.018.07-.015.107c-.003.07.02.139.066.192a.243.243 0 0 0 .194.075.31.31 0 0 0 .217-.081v-.202h-.222v.086zM25.895 22.199h-.104v.512h.359v-.087h-.255v-.425zM26.982 22.199h-.104v.512h.104v-.512zM28.044 22.541l-.21-.342h-.1v.512h.096v-.334l.206.334h.103v-.512h-.095v.342zM29.004 22.486h.255v-.087h-.255v-.112h.274V22.2H28.9v.512h.389v-.087h-.285v-.138zM31.332 22.401h-.202v-.202h-.103v.512h.103v-.224h.202v.224h.103v-.512h-.103v.202zM32.298 22.486h.256v-.087h-.256v-.112h.275V22.2h-.378v.512h.388v-.087h-.285v-.138zM33.607 22.486c.089-.014.134-.061.134-.142a.124.124 0 0 0-.051-.114.287.287 0 0 0-.15-.03h-.217v.512h.103v-.214h.02a.154.154 0 0 1 .064.011.098.098 0 0 1 .036.037l.112.163h.123l-.062-.1a.36.36 0 0 0-.113-.123zm-.103-.071h-.076v-.129h.081a.261.261 0 0 1 .104.012c.007.007.013.015.017.024s.006.019.005.029c0 .01-.003.02-.008.029s-.012.016-.02.022a.286.286 0 0 1-.105.012zM34.595 22.486h.255v-.087h-.255v-.112h.275V22.2h-.379v.512h.388v-.087h-.285v-.138z"/></symbol><symbol id="client-3" viewBox="0 0 59 32"><path fill="#afb1b8" style="fill:var(--color3, #afb1b8)" d="M23.793 22.644c.006 0 .011.001.016.003l.013.008.076.073a.627.627 0 0 1-.213.138.815.815 0 0 1-.302.049.808.808 0 0 1-.285-.046.579.579 0 0 1-.352-.331.656.656 0 0 1-.048-.258.596.596 0 0 1 .199-.46.687.687 0 0 1 .228-.131.903.903 0 0 1 .293-.046.778.778 0 0 1 .272.042.745.745 0 0 1 .204.116l-.064.077a.073.073 0 0 1-.016.014.053.053 0 0 1-.053-.002l-.034-.021-.047-.026c-.02-.01-.042-.018-.064-.026a.634.634 0 0 0-.41.006.45.45 0 0 0-.272.252.518.518 0 0 0-.039.204.534.534 0 0 0 .039.208.454.454 0 0 0 .105.154.426.426 0 0 0 .157.096.559.559 0 0 0 .195.033.753.753 0 0 0 .116-.007.466.466 0 0 0 .25-.106.059.059 0 0 1 .036-.013zM25.984 22.28a.633.633 0 0 1-.051.256c-.031.074-.08.142-.143.199s-.14.101-.224.131a.918.918 0 0 1-.577 0 .664.664 0 0 1-.223-.131.587.587 0 0 1-.144-.201.67.67 0 0 1 0-.513.6.6 0 0 1 .144-.202.662.662 0 0 1 .223-.126.904.904 0 0 1 .577 0c.084.03.16.074.224.131s.111.125.143.199c.035.082.052.17.051.258zm-.199 0a.54.54 0 0 0-.036-.206.42.42 0 0 0-.262-.251.667.667 0 0 0-.419 0 .455.455 0 0 0-.16.097.411.411 0 0 0-.102.154.607.607 0 0 0 0 .412.411.411 0 0 0 .262.25.682.682 0 0 0 .419 0 .439.439 0 0 0 .16-.096.432.432 0 0 0 .102-.154.54.54 0 0 0 .036-.206zM27.479 22.496l.02.046.022-.046c.008-.015.015-.031.025-.045l.485-.765c.009-.013.018-.021.027-.024a.133.133 0 0 1 .04-.004h.143v1.245h-.17V21.906l-.487.776c-.006.012-.016.021-.029.028s-.027.01-.042.01h-.027c-.015 0-.029-.003-.042-.01s-.022-.017-.028-.028l-.502-.781v.999h-.164v-1.242h.143a.136.136 0 0 1 .04.004.058.058 0 0 1 .027.024l.495.766c.01.014.018.029.025.044zM29.302 22.434v.466h-.19v-1.243h.423a.934.934 0 0 1 .236.027.49.49 0 0 1 .167.077.32.32 0 0 1 .095.122.383.383 0 0 1 .032.159.351.351 0 0 1-.137.283.479.479 0 0 1-.168.082.8.8 0 0 1-.229.029l-.23-.003zm0-.134h.23a.52.52 0 0 0 .147-.019.313.313 0 0 0 .106-.054.24.24 0 0 0 .087-.187c.002-.035-.004-.069-.019-.101s-.037-.061-.066-.085a.408.408 0 0 0-.255-.067h-.23v.512zM31.851 22.902h-.15a.076.076 0 0 1-.042-.012.086.086 0 0 1-.025-.029l-.129-.301h-.648l-.134.301a.07.07 0 0 1-.067.04h-.15l.569-1.245h.197l.577 1.245zm-.938-.463h.535l-.226-.507a.963.963 0 0 1-.043-.117l-.022.065a.586.586 0 0 1-.021.053l-.224.506zM32.671 21.662a.076.076 0 0 1 .028.022l.83.939v-.967h.17v1.245h-.095c-.014 0-.027-.002-.039-.007s-.022-.014-.03-.023l-.829-.938v.968h-.17v-1.245h.101c.012 0 .023.002.034.006zM35.097 22.407v.494h-.19v-.494l-.525-.75h.17a.065.065 0 0 1 .041.011c.01.008.019.017.026.028l.328.484c.013.021.025.04.034.058s.017.035.024.053l.024-.054a.397.397 0 0 1 .032-.057l.323-.487a.103.103 0 0 1 .025-.026.059.059 0 0 1 .041-.012h.171l-.525.753zM27.385 19.567c.082.009.166.017.25.023 1.28-.497 2.362-1.311 3.112-2.34s1.134-2.227 1.105-3.445l-1.41-1.225c.287 1.296.153 2.637-.387 3.871s-1.464 2.313-2.67 3.117z"/><path fill="#afb1b8" style="fill:var(--color3, #afb1b8)" d="m26.881 19.51.038.007c1.288-.801 2.271-1.919 2.82-3.209s.64-2.695.261-4.031l-2.009-1.745c.812 1.434 1.139 3.04.943 4.629s-.908 3.098-2.053 4.35zM33.693 15.244c-.341 1.338-1.17 2.545-2.363 3.441a7.477 7.477 0 0 1-1.123.7c.972-.248 1.865-.687 2.61-1.282s1.324-1.332 1.69-2.152l-.815-.707z"/><path fill="#afb1b8" style="fill:var(--color3, #afb1b8)" d="m33.374 15.047-1.16-1.008c-.022 1.149-.398 2.272-1.089 3.252s-1.671 1.781-2.838 2.321h.006c.26 0 .52-.014.779-.04 1.091-.387 2.055-1.003 2.806-1.792s1.265-1.728 1.497-2.732zM27.049 9.795l-1.384-1.204c-1.237.415-2.301 1.145-3.052 2.095s-1.156 2.074-1.159 3.226c.005 1.273.498 2.508 1.401 3.511s2.166 1.714 3.588 2.022c1.269-1.343 2.012-3.003 2.121-4.739s-.422-3.456-1.515-4.911zM36.57 14.862c-.005-1.51-.698-2.958-1.927-4.026s-2.895-1.67-4.633-1.674a7.353 7.353 0 0 0-2.349.38l8.471 7.36c.29-.651.439-1.342.438-2.04z"/></symbol><symbol id="client-4" viewBox="0 0 59 32"><path fill="#afb1b8" style="fill:var(--color3, #afb1b8)" d="M19.529 12.905h-.001c-.834 0-1.51.601-1.51 1.342v.001c0 .741.676 1.342 1.51 1.342h.001c.834 0 1.51-.601 1.51-1.342v-.001c0-.741-.676-1.342-1.51-1.342zM30.677 12.476c-.002-1.03-.464-2.016-1.283-2.744s-1.929-1.138-3.088-1.141c-1.159.002-2.27.412-3.089 1.14s-1.281 1.715-1.283 2.745v5.678s8.742-.865 8.743-5.677v-.001zM14.957 20.017c.002.716.323 1.403.893 1.91s1.342.792 2.148.794c.806-.002 1.578-.288 2.148-.794s.891-1.193.893-1.909v-3.951s-6.083.603-6.083 3.95zm3.041.708c-.158 0-.311-.041-.442-.119s-.233-.188-.293-.318c-.06-.129-.076-.272-.045-.409s.107-.263.218-.362c.111-.099.253-.166.408-.194s.315-.013.46.04c.146.054.27.144.357.261s.134.253.134.393c0 .093-.02.186-.06.272s-.098.165-.172.23c-.074.066-.162.118-.259.154s-.201.054-.305.054v-.003zM24.145 20.335h-.587v.606h-.306v-1.484h.966v.248h-.66v.383h.587v.247zm1.47-.102c0 .146-.026.274-.077.384a.583.583 0 0 1-.552.345.589.589 0 0 1-.553-.342.876.876 0 0 1-.081-.379v-.073c0-.146.026-.274.078-.385a.583.583 0 0 1 .553-.346c.123 0 .233.03.329.09.096.059.171.144.223.256s.079.239.079.384v.066zm-.31-.067c0-.156-.028-.274-.084-.355s-.135-.121-.238-.121c-.103 0-.182.04-.237.12s-.084.196-.085.351v.072c0 .151.028.269.084.353s.136.125.241.125c.103 0 .181-.04.236-.12s.083-.198.084-.353v-.072zm1.301.386c0-.058-.02-.102-.061-.133s-.114-.064-.22-.098a1.662 1.662 0 0 1-.252-.102c-.168-.091-.253-.214-.253-.368 0-.08.022-.151.067-.214s.11-.112.195-.148c.085-.035.18-.053.285-.053s.2.019.283.058c.083.038.147.092.193.162s.069.149.069.238h-.306c0-.068-.021-.121-.064-.158s-.103-.057-.18-.057c-.075 0-.133.016-.174.048s-.062.073-.062.124c0 .048.024.089.072.121s.121.063.215.092c.174.052.301.117.38.195s.119.174.119.289c0 .128-.049.229-.146.303s-.228.109-.392.109c-.114 0-.218-.021-.312-.062s-.165-.099-.215-.172a.442.442 0 0 1-.073-.253h.307c0 .164.098.246.293.246.073 0 .129-.015.17-.044s.061-.071.061-.124zm1.632-.847h-.454v1.236h-.306v-1.236h-.448v-.248h1.209v.248zm1.068.594h-.587v.397h.689v.246h-.995v-1.484h.993v.248h-.687v.354h.587v.239zm.83.099h-.244v.543h-.306v-1.484h.551c.175 0 .31.039.406.117s.143.189.143.331c0 .101-.022.186-.066.254s-.11.121-.199.161l.321.606v.014h-.328l-.278-.543zm-.243-.247h.247c.077 0 .136-.019.178-.058s.063-.093.063-.162c0-.07-.02-.125-.06-.165s-.1-.06-.182-.06h-.246v.445zm1.852.268v.523h-.306v-1.484h.579c.111 0 .209.02.294.061a.456.456 0 0 1 .264.43c0 .145-.05.26-.15.344s-.237.125-.413.125h-.268zm0-.248h.273c.081 0 .142-.019.184-.057s.064-.092.064-.163c0-.073-.021-.131-.064-.176s-.102-.068-.177-.069h-.28v.466zm1.934.128h-.587v.397h.689v.246h-.995v-1.484h.993v.248h-.687v.354h.587v.239zm1.419-.594h-.455v1.236h-.306v-1.236h-.448v-.248h1.209v.248zm1.068.594h-.587v.397h.689v.246h-.994v-1.484h.992v.248h-.687v.354h.587v.239zm.83.099h-.243v.543h-.306v-1.484h.551c.175 0 .31.039.406.117s.143.189.143.331c0 .101-.022.186-.066.254s-.11.121-.199.161l.321.606v.014h-.328l-.278-.543zm-.243-.247H37c.077 0 .136-.019.178-.058s.063-.093.063-.162c0-.07-.02-.125-.06-.165s-.1-.06-.182-.06h-.246v.445zm1.796.401c0-.058-.021-.102-.061-.133s-.114-.064-.22-.098a1.602 1.602 0 0 1-.251-.102c-.169-.091-.253-.214-.253-.368 0-.08.022-.151.067-.214s.111-.112.195-.148a.742.742 0 0 1 .285-.053c.106 0 .2.019.283.058s.147.092.192.162c.046.07.07.149.07.238h-.306c0-.068-.022-.121-.064-.158s-.103-.057-.18-.057c-.075 0-.133.016-.174.048s-.062.073-.062.124c0 .048.024.089.072.121s.121.063.215.092c.174.052.301.117.38.195s.119.174.119.289c0 .128-.049.229-.146.303s-.228.109-.392.109c-.114 0-.218-.021-.312-.062s-.165-.099-.215-.172a.442.442 0 0 1-.073-.253h.307c0 .164.098.246.294.246.073 0 .129-.015.17-.044s.061-.071.061-.124z"/></symbol><symbol id="client-5" viewBox="0 0 59 32"><path fill="#afb1b8" style="fill:var(--color3, #afb1b8)" d="M20.437 21.125c.085.096.13.216.128.34.004.081-.011.161-.045.235s-.086.141-.152.194a.92.92 0 0 1-.575.157h-1.01v-2.154h.989a.904.904 0 0 1 .548.143c.064.049.114.111.148.181s.048.146.044.222a.468.468 0 0 1-.115.329.542.542 0 0 1-.301.168.586.586 0 0 1 .341.184zm-1.184-.325h.423a.43.43 0 0 0 .269-.072.251.251 0 0 0 .091-.211c.003-.039-.003-.078-.019-.114s-.04-.069-.071-.096a.44.44 0 0 0-.277-.073h-.416v.565zm.733.826c.034-.027.061-.061.078-.099s.025-.079.022-.12c.003-.042-.005-.083-.023-.121s-.045-.072-.079-.1a.465.465 0 0 0-.287-.078h-.444v.592h.449a.478.478 0 0 0 .284-.075zM22.459 22.051l-.55-.842h-.207v.842h-.473v-2.154h.896a.942.942 0 0 1 .624.183c.125.117.201.271.213.434s-.04.325-.146.457a.753.753 0 0 1-.427.219l.586.861h-.515zm-.757-1.135h.387c.269 0 .403-.109.403-.326a.304.304 0 0 0-.099-.242.443.443 0 0 0-.305-.087h-.392l.005.655zM25.047 21.618h-.943l-.167.433h-.496l.866-2.129h.537l.863 2.129h-.496l-.163-.433zm-.126-.327-.345-.909-.345.909h.689zM28.286 22.051h-.47l-1.054-1.464v1.464h-.469v-2.154h.469l1.054 1.473v-1.473h.47v2.154zM30.968 21.536a.976.976 0 0 1-.425.38 1.496 1.496 0 0 1-.661.136h-.837v-2.154h.837c.229-.005.455.04.661.133.18.083.328.214.425.376a1.164 1.164 0 0 1 0 1.13zm-.538-.052c.134-.143.208-.325.208-.514s-.074-.371-.208-.514a.865.865 0 0 0-.588-.183h-.326v1.394h.326a.864.864 0 0 0 .588-.183zM25.341 7.919s6.066 2.097 5.937 5.131v5.132s-6.061-2.098-5.935-5.132l-.002-5.131zM36.682 16.98a8.793 8.793 0 0 1 3.854-1.3v-1.607c-1.594.562-2.946 1.582-3.854 2.907z"/><path fill="#afb1b8" style="fill:var(--color3, #afb1b8)" d="M35.994 17.464c.937-1.729 2.563-3.063 4.542-3.727V9.108s-8.638 2.987-8.456 7.308v7.306s.385-.134.99-.384c0-.234 0-.469.028-.706.179-2.006 1.22-3.865 2.896-5.168z"/><path fill="#afb1b8" style="fill:var(--color3, #afb1b8)" d="M35.172 20.178a6.919 6.919 0 0 1 .302-1.496c-1.043 1.125-1.675 2.522-1.806 3.993a5.81 5.81 0 0 0-.023.421 25.701 25.701 0 0 0 1.661-.802 6.936 6.936 0 0 1-.134-2.116zM35.515 20.205a6.629 6.629 0 0 0 .107 1.916c2.36-1.293 5.012-3.291 4.91-5.705v-.21c-1.686.173-3.264.848-4.49 1.921a6.711 6.711 0 0 0-.526 2.079z"/></symbol><symbol id="client-6" viewBox="0 0 59 32"><path fill="#afb1b8" style="fill:var(--color3, #afb1b8)" d="M29.713 15.098a1.024 1.024 0 0 1-.21-.692v-1.003c0-.307.07-.541.209-.701s.379-.239.718-.239c.319 0 .546.068.679.204a.833.833 0 0 1 .201.6v.236h-.571v-.239a1.153 1.153 0 0 0-.017-.234.224.224 0 0 0-.082-.139.33.33 0 0 0-.207-.054.346.346 0 0 0-.217.057.27.27 0 0 0-.095.153 1.15 1.15 0 0 0-.022.248v1.217a.624.624 0 0 0 .073.342c.028.036.068.065.114.083s.097.025.147.019a.314.314 0 0 0 .202-.055.245.245 0 0 0 .085-.148c.013-.081.019-.162.018-.244v-.247h.571v.225a.916.916 0 0 1-.197.63c-.131.149-.355.223-.683.223s-.577-.08-.717-.245zM32.089 15.109c-.144-.156-.216-.384-.216-.685v-1.055c0-.298.072-.523.216-.676s.385-.229.723-.229c.336 0 .575.076.72.229s.217.379.217.676v1.055c0 .298-.073.526-.22.684s-.385.236-.717.236c-.332 0-.578-.08-.723-.235zm.989-.253a.592.592 0 0 0 .069-.312v-1.292a.579.579 0 0 0-.067-.306c-.029-.037-.069-.066-.117-.084s-.099-.024-.151-.018c-.051-.006-.103 0-.151.018s-.088.047-.117.084a.569.569 0 0 0-.069.306v1.298a.572.572 0 0 0 .069.312c.033.033.074.059.12.077a.404.404 0 0 0 .414-.077v-.006zM34.436 12.495h.614l.462 1.946.473-1.946h.598l.061 2.809h-.442l-.047-1.952-.456 1.952h-.354l-.473-1.96-.044 1.96h-.447l.056-2.809zM37.332 12.495h.957c.551 0 .827.266.827.798 0 .509-.29.764-.871.763h-.326v1.249h-.591l.003-2.809zm.818 1.201a.464.464 0 0 0 .325-.089.451.451 0 0 0 .085-.317.88.88 0 0 0-.029-.255c-.008-.028-.023-.054-.043-.077s-.046-.042-.074-.057a.62.62 0 0 0-.264-.045h-.229v.839h.229zM39.968 12.495h.635l.651 2.809h-.551l-.129-.648h-.566l-.133.648h-.559l.651-2.809zm.543 1.836-.221-1.179-.221 1.179h.442zM41.78 12.495h.414l.792 1.603v-1.603h.49v2.809h-.393l-.797-1.673v1.673h-.507l.001-2.809zM44.624 14.233l-.658-1.734h.554l.402 1.114.377-1.114h.543l-.65 1.734v1.071h-.567v-1.071zM30.625 16.533v.147h-.482v1.142h-.202V16.68h-.484v-.147h1.169zM32.137 17.821h-.156a.068.068 0 0 1-.044-.012.063.063 0 0 1-.026-.03l-.139-.306h-.669l-.139.306a.084.084 0 0 1-.021.035.067.067 0 0 1-.044.012h-.156l.591-1.288h.206l.598 1.283zm-.979-.478h.558l-.236-.524a1.097 1.097 0 0 1-.044-.121l-.022.068-.021.054-.234.523zM33.155 17.695a.752.752 0 0 0 .37-.07v-.29h-.236c-.006 0-.012 0-.017-.002s-.011-.004-.015-.008c-.004-.003-.007-.006-.009-.011s-.003-.008-.003-.013v-.099h.458v.494a.822.822 0 0 1-.249.105 1.206 1.206 0 0 1-.32.035.882.882 0 0 1-.298-.048.734.734 0 0 1-.236-.135.609.609 0 0 1-.206-.471.6.6 0 0 1 .205-.473.721.721 0 0 1 .236-.134.995.995 0 0 1 .317-.048c.055 0 .11.004.164.011a.85.85 0 0 1 .259.084.961.961 0 0 1 .103.067l-.057.08a.055.055 0 0 1-.046.025.079.079 0 0 1-.037-.01.48.48 0 0 1-.058-.031.558.558 0 0 0-.188-.064.842.842 0 0 0-.378.025.455.455 0 0 0-.284.262.601.601 0 0 0 0 .43.499.499 0 0 0 .291.264.683.683 0 0 0 .234.026zM35.039 17.674h.645v.147h-.842v-1.288h.202l-.005 1.142zM36.355 17.821h-.202v-1.288h.202v1.288zM37.106 16.539a.104.104 0 0 1 .031.023l.864.971a.353.353 0 0 1 0-.046V16.527h.176v1.294h-.102a.095.095 0 0 1-.044-.007.128.128 0 0 1-.032-.024l-.863-.97v1.002h-.169v-1.289h.105c.011 0 .023.002.033.006zM39.665 16.533v.142h-.716v.425h.58v.137h-.58v.44h.716v.142h-.924v-1.285h.924zM18.491 8.576l8.972 2.199v7.707l-8.972-2.198V8.576zm-.575-.657v8.739l10.122 2.482v-8.738L17.916 7.919z"/><path fill="#afb1b8" style="fill:var(--color3, #afb1b8)" d="m23.34 23.197-10.123-2.484v-8.739l10.123 2.483v8.74z"/><path fill="#afb1b8" style="fill:var(--color3, #afb1b8)" d="m18.083 8.477 8.855 2.172-3.766 3.252-8.856-2.173 3.767-3.251zm-.167-.558-4.698 4.056 10.123 2.483 4.697-4.056-10.122-2.483zM23.91 22.706l4.127-3.564-4.127-1.013v4.577z"/></symbol><symbol id="clock" viewBox="0 0 32 32"><path fill="#212121" style="fill:var(--color1, #212121)" d="M31.297 15.301C31.295 6.849 24.442-.002 15.989 0S.686 6.855.688 15.308a15.304 15.304 0 0 0 10.649 14.576.662.662 0 0 0 .529-.065.637.637 0 0 0 .283-.356l3.865-12.25a1.912 1.912 0 1 0-.84-3.635l-5.106-5.107a.637.637 0 0 0-.902.902l5.103 5.109a1.876 1.876 0 0 0 .536 2.309l-3.683 11.673C3.844 25.783.118 17.71 2.799 10.432S13.553-.572 20.831 2.109s11.004 10.754 8.323 18.032a14.042 14.042 0 0 1-7.462 7.973l-.398-1.874a.638.638 0 0 0-1.048-.344l-3.837 3.426a.637.637 0 0 0 .231 1.084l4.899 1.563a.638.638 0 0 0 .819-.74l-.391-1.839a15.255 15.255 0 0 0 9.329-14.089zm-15.305-.637a.638.638 0 1 1 0 1.277.638.638 0 0 1 0-1.277zm2.101 14.864 2.184-1.948.603 2.84-2.787-.892z"/><path fill="#2196f3" style="fill:var(--color2, #2196f3)" d="M15.354 3.185V4.46a.638.638 0 1 0 1.276 0V3.185a.638.638 0 0 0-1.276 0zM3.876 14.664a.638.638 0 0 0 0 1.276h1.275a.638.638 0 1 0 0-1.276H3.876zM28.108 15.939a.638.638 0 1 0 0-1.276h-1.275a.638.638 0 0 0 0 1.276h1.275z"/></symbol><symbol id="diagram" viewBox="0 0 32 32"><path fill="#2196f3" style="fill:var(--color2, #2196f3)" d="M14.926 14.965h1.066v4.798h-1.066v-4.797zM19.19 17.097h1.066v2.665H19.19v-2.665zM10.661 18.696h1.066v1.066h-1.066v-1.066zM7.463 18.163h1.066v1.599H7.463v-1.599z"/><path fill="#212121" style="fill:var(--color1, #212121)" d="M1.599 28.291h25.587a1.6 1.6 0 0 0 1.599-1.599V24.56a1.6 1.6 0 0 0-1.599-1.599h-.533V9.668L29.681 6.8a1.608 1.608 0 1 0-.746-.763L26.654 8.2V6.97a1.6 1.6 0 0 0-1.599-1.599H3.733A1.6 1.6 0 0 0 2.134 6.97v15.992h-.533a1.6 1.6 0 0 0-1.599 1.599v2.132a1.6 1.6 0 0 0 1.599 1.599zM30.384 4.837a.533.533 0 1 1 0 1.067.533.533 0 0 1 0-1.067zM3.198 6.969c0-.294.239-.533.533-.533h21.322c.294 0 .533.239.533.533v2.239l-1.066 1.013V8.035a.533.533 0 0 0-.533-.533H4.797a.533.533 0 0 0-.533.533v13.326c0 .294.239.533.533.533h19.19a.533.533 0 0 0 .533-.533v-9.674l1.066-1.01v12.284H3.198V6.969zm4.798 6.93a1.598 1.598 0 1 0 1.107 2.749l1.853.93a.532.532 0 0 0 .636-.123l3.939-4.431 3.872 2.901a.533.533 0 0 0 .686-.039l3.365-3.188v8.131H5.33V8.569h18.124v2.66l-3.771 3.572-3.904-2.927a.533.533 0 0 0-.718.072l-3.993 4.493-1.493-.746c.011-.064.018-.129.02-.193a1.6 1.6 0 0 0-1.599-1.599zm.533 1.599a.533.533 0 1 1-1.067 0 .533.533 0 0 1 1.067 0zm3.198 8.529h5.331v.533a.533.533 0 0 1-.533.533h-4.264a.533.533 0 0 1-.533-.533v-.533zm-10.661.533c0-.294.239-.533.533-.533h9.062v.533a1.6 1.6 0 0 0 1.599 1.599h4.264a1.6 1.6 0 0 0 1.599-1.599v-.533h9.062c.294 0 .533.239.533.533v2.132a.533.533 0 0 1-.533.533H1.598a.533.533 0 0 1-.533-.533V24.56z"/></symbol><symbol id="facebook" viewBox="0 0 32 32"><path fill="#afb1b8" style="fill:var(--color3, #afb1b8)" d="M21.329 5.313h2.921V.225C23.746.156 22.013 0 19.994 0c-4.212 0-7.097 2.649-7.097 7.519V12H8.249v5.688h4.648V32h5.699V17.689h4.46l.708-5.688h-5.169V8.082c.001-1.644.444-2.769 2.735-2.769z"/></symbol><symbol id="instagram" viewBox="0 0 32 32"><path fill="#afb1b8" style="fill:var(--color3, #afb1b8)" d="M31.969 9.408c-.075-1.7-.35-2.869-.744-3.882a7.806 7.806 0 0 0-1.851-2.838A7.867 7.867 0 0 0 26.542.844C25.523.45 24.36.175 22.66.1 20.947.019 20.403 0 16.059 0s-4.888.019-6.595.094c-1.7.075-2.869.35-3.882.744a7.803 7.803 0 0 0-2.838 1.85A7.867 7.867 0 0 0 .9 5.52C.506 6.539.231 7.702.156 9.402c-.081 1.713-.1 2.257-.1 6.601s.019 4.888.094 6.595c.075 1.7.35 2.869.744 3.882a7.895 7.895 0 0 0 1.85 2.838 7.867 7.867 0 0 0 2.832 1.844c1.019.394 2.182.669 3.882.744 1.706.075 2.25.094 6.595.094s4.888-.019 6.595-.094c1.7-.075 2.869-.35 3.882-.744a8.184 8.184 0 0 0 4.682-4.682c.394-1.019.669-2.182.744-3.882.075-1.707.094-2.251.094-6.595s-.006-4.888-.081-6.595zm-2.882 13.065c-.069 1.563-.331 2.407-.55 2.969a5.31 5.31 0 0 1-3.038 3.038c-.563.219-1.413.481-2.969.55-1.688.075-2.194.094-6.464.094s-4.782-.019-6.464-.094c-1.563-.069-2.407-.331-2.969-.55a4.926 4.926 0 0 1-1.838-1.194 4.974 4.974 0 0 1-1.194-1.838c-.219-.563-.481-1.413-.55-2.969-.075-1.688-.094-2.194-.094-6.464s.019-4.782.094-6.464c.069-1.563.331-2.407.55-2.969a4.868 4.868 0 0 1 1.2-1.838A4.974 4.974 0 0 1 6.639 3.55c.563-.219 1.413-.481 2.969-.55 1.688-.075 2.194-.094 6.464-.094 4.276 0 4.782.019 6.464.094 1.563.069 2.407.331 2.969.55a4.914 4.914 0 0 1 1.838 1.194 4.974 4.974 0 0 1 1.194 1.838c.219.563.481 1.413.55 2.969.075 1.688.094 2.194.094 6.464s-.019 4.77-.094 6.458z"/><path fill="#afb1b8" style="fill:var(--color3, #afb1b8)" d="M16.059 7.783c-4.538 0-8.22 3.682-8.22 8.22s3.682 8.22 8.22 8.22c4.539 0 8.22-3.682 8.22-8.22s-3.682-8.22-8.22-8.22zm0 13.552a5.333 5.333 0 0 1 0-10.664 5.333 5.333 0 0 1 0 10.664zM26.524 7.458a1.919 1.919 0 1 1-3.838 0 1.919 1.919 0 0 1 3.838 0z"/></symbol><symbol id="linkedin" viewBox="0 0 32 32"><path fill="#afb1b8" style="fill:var(--color3, #afb1b8)" d="M31.992 32v-.001H32V20.263c0-5.741-1.236-10.164-7.948-10.164-3.227 0-5.392 1.771-6.276 3.449h-.093v-2.913h-6.364v21.364h6.627V21.42c0-2.785.528-5.479 3.977-5.479 3.399 0 3.449 3.179 3.449 5.657v10.401h6.62zM.528 10.636h6.635V32H.528V10.636zM3.843 0C1.722 0 0 1.721 0 3.843s1.721 3.879 3.843 3.879c2.121 0 3.843-1.757 3.843-3.879A3.846 3.846 0 0 0 3.843 0z"/></symbol><symbol id="mail-icon" viewBox="0 0 43 32"><path d="M38.667 0H4C1.794 0 0 1.794 0 4v24c0 2.206 1.794 4 4 4h34.667c2.206 0 4-1.794 4-4V4c0-2.206-1.794-4-4-4zm0 2.667c.181 0 .353.038.511.103L21.334 18.236 3.49 2.77a1.32 1.32 0 0 1 .511-.103h34.667zm0 26.666H4A1.334 1.334 0 0 1 2.667 28V5.587L20.46 21.008a1.335 1.335 0 0 0 1.748 0L40.001 5.587V28c0 .736-.598 1.333-1.333 1.333z"/></symbol><symbol id="phone_icon" viewBox="0 0 20 32"><path fill="#757575" style="fill:var(--color4, #757575)" d="M17 0H3C1.346 0 0 1.346 0 3v26c0 1.654 1.346 3 3 3h14c1.654 0 3-1.346 3-3V3c0-1.654-1.346-3-3-3zM3 2h14a1 1 0 0 1 1 1v21H2V3a1 1 0 0 1 1-1zm14 28H3a1 1 0 0 1-1-1v-3h16v3a1 1 0 0 1-1 1z"/><path fill="#757575" style="fill:var(--color4, #757575)" d="M4.707 27.478c.391.365.391.956 0 1.321s-1.024.365-1.414 0c-.391-.365-.391-.956 0-1.321s1.024-.365 1.414 0z"/></symbol><symbol id="twitter" viewBox="0 0 32 32"><path fill="#afb1b8" style="fill:var(--color3, #afb1b8)" d="M32 6.078c-1.19.522-2.458.868-3.78 1.036a6.523 6.523 0 0 0 2.886-3.626 13.11 13.11 0 0 1-4.16 1.588A6.574 6.574 0 0 0 22.154 3c-3.632 0-6.556 2.948-6.556 6.562 0 .52.044 1.02.152 1.496-5.454-.266-10.28-2.88-13.522-6.862a6.605 6.605 0 0 0-.898 3.316 6.57 6.57 0 0 0 2.914 5.452 6.479 6.479 0 0 1-2.964-.808v.072c0 3.188 2.274 5.836 5.256 6.446a6.548 6.548 0 0 1-1.72.216 5.8 5.8 0 0 1-1.242-.112c.85 2.598 3.262 4.508 6.13 4.57a13.182 13.182 0 0 1-8.134 2.798c-.538 0-1.054-.024-1.57-.09A18.469 18.469 0 0 0 10.064 29c12.072 0 18.672-10 18.672-18.668 0-.29-.01-.57-.024-.848A13.087 13.087 0 0 0 32 6.078z"/></symbol></defs></svg>